<?xml version="1.0" encoding="UTF-8" standalone="no"?>
<!-- Generator: Adobe Illustrator 25.2.0, SVG Export Plug-In . SVG Version: 6.00 Build 0)  -->

<svg
   version="1.1"
   id="Layer_1"
   x="0px"
   y="0px"
   viewBox="0 0 1106.295 1159.4504"
   xml:space="preserve"
   sodipodi:docname="sphinx-needs-logo.svg"
   width="1106.2949"
   height="1159.4504"
   inkscape:version="1.3.2 (091e20ef0f, 2023-11-25, custom)"
   inkscape:export-filename="sphinx-needs-logo.png"
   inkscape:export-xdpi="90"
   inkscape:export-ydpi="90"
   xmlns:inkscape="http://www.inkscape.org/namespaces/inkscape"
   xmlns:sodipodi="http://sodipodi.sourceforge.net/DTD/sodipodi-0.dtd"
   xmlns="http://www.w3.org/2000/svg"
   xmlns:svg="http://www.w3.org/2000/svg"><defs
   id="defs43">
</defs><sodipodi:namedview
   id="namedview41"
   pagecolor="#ffffff"
   bordercolor="#666666"
   borderopacity="1.0"
   inkscape:pageshadow="2"
   inkscape:pageopacity="0.0"
   inkscape:pagecheckerboard="0"
   showgrid="false"
   fit-margin-top="0"
   fit-margin-left="0"
   fit-margin-right="0"
   fit-margin-bottom="0"
   inkscape:zoom="0.6171875"
   inkscape:cx="384"
   inkscape:cy="554.12658"
   inkscape:window-width="2558"
   inkscape:window-height="1408"
   inkscape:window-x="3840"
   inkscape:window-y="2"
   inkscape:window-maximized="1"
   inkscape:current-layer="Layer_1"
   inkscape:showpageshadow="2"
   inkscape:deskcolor="#d1d1d1" />
<style
   type="text/css"
   id="style2">
	.st0{fill:#00A9DD;}
	.st1{fill:#0094D4;}
</style>
<rect
   style="fill:#ffffff;stroke:#57bb8a;stroke-width:2.2684;stroke-linecap:round"
   id="rect1"
   width="1104.0265"
   height="1157.182"
   x="1.1342"
   y="1.1342"
   ry="127.4725"
   rx="125.51445" /><g
   id="g1"
   transform="translate(5.7360791,-6.0028416)"><path
     class="st0"
     d="M 829.05813,478.02154 H 988.92064 V 694.33595 H 772.60624 V 534.47344 L 741.70418,503.57138 V 705.20942 L 585.39104,861.52256 c -26.43718,-17.19754 -62.26892,-14.21157 -85.43842,8.95794 -26.60619,26.60619 -26.60619,69.90287 0,96.50907 26.60619,26.60619 69.90288,26.60619 96.50907,0 23.1695,-23.16951 26.15548,-59.00124 8.95794,-85.43842 L 761.73277,725.23801 H 1019.8227 V 447.11949 H 798.15607 Z M 576.4331,946.96098 c -15.56371,15.5637 -40.88818,15.5637 -56.45189,0 -15.56371,-15.56371 -15.56371,-40.88819 0,-56.45189 15.56371,-15.56371 40.88818,-15.56371 56.45189,0 15.56371,15.5637 15.56371,40.88818 0,56.45189 z"
     id="path4"
     style="fill:#2a639a;fill-opacity:1;stroke:none;stroke-width:1.40848" /><path
     class="st1"
     d="m 438.47246,144.54975 h 216.3144 v 216.3144 H 494.92435 l -30.90206,30.90206 H 666.3364 l 157.22866,157.22866 c -17.19755,26.43717 -14.21157,62.26891 8.95793,85.43841 26.60619,26.60619 69.90288,26.60619 96.50907,0 26.60619,-26.60619 26.60619,-69.90288 0,-96.50907 -23.1695,-23.1695 -59.00124,-26.15548 -85.43841,-8.95793 L 685.703,371.07564 V 113.64769 H 407.5704 v 221.66663 l 30.90206,-30.90206 z M 908.98939,557.9528 c 15.5637,15.56371 15.5637,40.88818 0,56.45189 -15.56371,15.56371 -40.88819,15.56371 -56.45189,0 -15.56371,-15.56371 -15.56371,-40.88818 0,-56.45189 15.57779,-15.56371 40.88818,-15.56371 56.45189,0 z"
     id="path6"
     style="fill:#4895e2;fill-opacity:1;stroke:none;stroke-width:1.40848" /><path
     class="st0"
     d="M 75.000031,724.32249 H 296.66666 L 265.7646,693.42044 H 105.90209 V 477.10603 h 216.3144 v 159.86252 l 30.90206,30.90205 V 466.23256 L 509.43169,309.91942 c 26.43718,17.19755 62.26892,14.21157 85.43842,-8.95793 26.60619,-26.6062 26.60619,-69.90288 0,-96.50907 -26.60619,-26.6062 -69.90288,-26.6062 -96.50907,0 -23.1695,23.1695 -26.15548,59.00124 -8.95794,85.43841 L 333.10405,446.20397 H 75.000031 Z M 518.40371,224.48101 c 15.56371,-15.56371 40.88819,-15.56371 56.45189,0 15.56371,15.5637 15.56371,40.88818 0,56.45189 -15.5637,15.5637 -40.88818,15.5637 -56.45189,0 -15.5637,-15.56371 -15.5637,-40.88819 0,-56.45189 z"
     id="path8"
     style="fill:#2a639a;fill-opacity:1;stroke:none;stroke-width:1.40848" /><path
     class="st1"
     d="M 656.36436,1026.8922 H 440.04995 V 810.57783 h 159.86252 l 30.90206,-30.90206 H 428.50042 L 271.28585,622.4612 c 17.19754,-26.43718 14.21156,-62.26891 -8.95794,-85.43842 -26.60619,-26.60619 -69.90288,-26.60619 -96.50907,0 -26.60619,26.6062 -26.60619,69.90288 0,96.50907 23.1695,23.16951 59.00124,26.15548 85.43842,8.95794 L 409.1479,800.38043 V 1057.8084 H 687.26642 V 836.14175 L 656.36436,867.0438 Z M 185.84743,613.48918 c -15.56371,-15.56371 -15.56371,-40.88818 0,-56.45189 15.56371,-15.56371 40.88818,-15.56371 56.45189,0 15.56371,15.56371 15.56371,40.88818 0,56.45189 -15.57779,15.56371 -40.88818,15.56371 -56.45189,0 z"
     id="path10"
     style="fill:#4895e2;fill-opacity:1;stroke:none;stroke-width:1.40848" /></g>

</svg>
